<svg width="58" height="46" viewBox="0 0 58 46" fill="none" xmlns="http://www.w3.org/2000/svg">
<path d="M49.0994 4.53576C45.4027 2.83954 41.4385 1.58985 37.2938 0.874096C37.2183 0.860282 37.1429 0.894804 37.104 0.963848C36.5942 1.87062 36.0294 3.05357 35.634 3.98337C31.176 3.31596 26.7409 3.31596 22.3743 3.98337C21.9787 3.03291 21.3935 1.87062 20.8814 0.963848C20.8425 0.897108 20.7671 0.862586 20.6916 0.874096C16.5491 1.58756 12.5849 2.83726 8.88593 4.53576C8.8539 4.54956 8.82646 4.5726 8.80824 4.6025C1.28903 15.836 -0.770796 26.7935 0.239685 37.615C0.244257 37.668 0.273977 37.7186 0.315129 37.7508C5.27609 41.394 10.0816 43.6058 14.7979 45.0718C14.8734 45.0948 14.9534 45.0672 15.0014 45.0051C16.1171 43.4815 17.1116 41.8751 17.9642 40.1857C18.0146 40.0868 17.9665 39.9694 17.8637 39.9303C16.2862 39.3319 14.7842 38.6023 13.3393 37.7738C13.2251 37.7071 13.2159 37.5436 13.321 37.4654C13.6251 37.2375 13.9292 37.0005 14.2196 36.7611C14.2721 36.7174 14.3453 36.7082 14.407 36.7358C23.8991 41.0696 34.1754 41.0696 43.5555 36.7358C43.6172 36.7059 43.6904 36.7151 43.7452 36.7588C44.0356 36.9982 44.3397 37.2375 44.646 37.4654C44.7512 37.5436 44.7443 37.7071 44.63 37.7738C43.1852 38.6184 41.6831 39.3319 40.1034 39.928C40.0006 39.9671 39.9548 40.0868 40.0051 40.1857C40.8761 41.8727 41.8706 43.4792 42.9657 45.0028C43.0114 45.0672 43.0937 45.0948 43.1692 45.0718C47.9083 43.6058 52.7138 41.394 57.6748 37.7508C57.7182 37.7186 57.7457 37.6703 57.7503 37.6173C58.9596 25.1064 55.7247 14.2388 49.1749 4.60479C49.1588 4.5726 49.1315 4.54956 49.0994 4.53576ZM19.3817 31.0258C16.524 31.0258 14.1692 28.4022 14.1692 25.1801C14.1692 21.958 16.4783 19.3343 19.3817 19.3343C22.3079 19.3343 24.6399 21.981 24.5941 25.1801C24.5941 28.4022 22.2851 31.0258 19.3817 31.0258ZM38.654 31.0258C35.7963 31.0258 33.4416 28.4022 33.4416 25.1801C33.4416 21.958 35.7505 19.3343 38.654 19.3343C41.5803 19.3343 43.9121 21.981 43.8665 25.1801C43.8665 28.4022 41.5803 31.0258 38.654 31.0258Z" fill="white"/>
<path d="M49.0994 4.53576C45.4027 2.83954 41.4385 1.58985 37.2938 0.874096C37.2183 0.860282 37.1429 0.894804 37.104 0.963848C36.5942 1.87062 36.0294 3.05357 35.634 3.98337C31.176 3.31596 26.7409 3.31596 22.3743 3.98337C21.9787 3.03291 21.3935 1.87062 20.8814 0.963848C20.8425 0.897108 20.7671 0.862586 20.6916 0.874096C16.5491 1.58756 12.5849 2.83726 8.88593 4.53576C8.8539 4.54956 8.82646 4.5726 8.80824 4.6025C1.28903 15.836 -0.770796 26.7935 0.239685 37.615C0.244257 37.668 0.273977 37.7186 0.315129 37.7508C5.27609 41.394 10.0816 43.6058 14.7979 45.0718C14.8734 45.0948 14.9534 45.0672 15.0014 45.0051C16.1171 43.4815 17.1116 41.8751 17.9642 40.1857C18.0146 40.0868 17.9665 39.9694 17.8637 39.9303C16.2862 39.3319 14.7842 38.6023 13.3393 37.7738C13.2251 37.7071 13.2159 37.5436 13.321 37.4654C13.6251 37.2375 13.9292 37.0005 14.2196 36.7611C14.2721 36.7174 14.3453 36.7082 14.407 36.7358C23.8991 41.0696 34.1754 41.0696 43.5555 36.7358C43.6172 36.7059 43.6904 36.7151 43.7452 36.7588C44.0356 36.9982 44.3397 37.2375 44.646 37.4654C44.7512 37.5436 44.7443 37.7071 44.63 37.7738C43.1852 38.6184 41.6831 39.3319 40.1034 39.928C40.0006 39.9671 39.9548 40.0868 40.0051 40.1857C40.8761 41.8727 41.8706 43.4792 42.9657 45.0028C43.0114 45.0672 43.0937 45.0948 43.1692 45.0718C47.9083 43.6058 52.7138 41.394 57.6748 37.7508C57.7182 37.7186 57.7457 37.6703 57.7503 37.6173C58.9596 25.1064 55.7247 14.2388 49.1749 4.60479C49.1588 4.5726 49.1315 4.54956 49.0994 4.53576ZM19.3817 31.0258C16.524 31.0258 14.1692 28.4022 14.1692 25.1801C14.1692 21.958 16.4783 19.3343 19.3817 19.3343C22.3079 19.3343 24.6399 21.981 24.5941 25.1801C24.5941 28.4022 22.2851 31.0258 19.3817 31.0258ZM38.654 31.0258C35.7963 31.0258 33.4416 28.4022 33.4416 25.1801C33.4416 21.958 35.7505 19.3343 38.654 19.3343C41.5803 19.3343 43.9121 21.981 43.8665 25.1801C43.8665 28.4022 41.5803 31.0258 38.654 31.0258Z" fill="#BFFAE2"/>
</svg>
