<svg width="66" height="38" viewBox="0 0 66 38" fill="none" xmlns="http://www.w3.org/2000/svg">
<path fill-rule="evenodd" clip-rule="evenodd" d="M37.1634 19.0005C37.1634 29.1943 28.9557 37.458 18.8317 37.458C8.70762 37.458 0.5 29.1943 0.5 19.0005C0.5 8.80664 8.70762 0.542969 18.8292 0.542969C28.9508 0.542969 37.1634 8.80664 37.1634 19.0005ZM57.2739 18.999C57.2739 28.5949 53.1701 36.3759 48.1083 36.3759C43.0466 36.3759 38.9421 28.5967 38.9421 18.999C38.9421 9.40119 43.0459 1.62207 48.1083 1.62207C53.1707 1.62207 57.2739 9.40119 57.2739 18.999ZM62.2762 34.5676C64.0563 34.5676 65.5 27.5957 65.5 19.0006C65.5 10.4037 64.0569 3.43367 62.2762 3.43367C60.4956 3.43367 59.0525 10.4031 59.0525 19.0006C59.0525 27.5982 60.4962 34.5676 62.2762 34.5676Z" fill="white"/>
<path fill-rule="evenodd" clip-rule="evenodd" d="M37.1634 19.0005C37.1634 29.1943 28.9557 37.458 18.8317 37.458C8.70762 37.458 0.5 29.1943 0.5 19.0005C0.5 8.80664 8.70762 0.542969 18.8292 0.542969C28.9508 0.542969 37.1634 8.80664 37.1634 19.0005ZM57.2739 18.999C57.2739 28.5949 53.1701 36.3759 48.1083 36.3759C43.0466 36.3759 38.9421 28.5967 38.9421 18.999C38.9421 9.40119 43.0459 1.62207 48.1083 1.62207C53.1707 1.62207 57.2739 9.40119 57.2739 18.999ZM62.2762 34.5676C64.0563 34.5676 65.5 27.5957 65.5 19.0006C65.5 10.4037 64.0569 3.43367 62.2762 3.43367C60.4956 3.43367 59.0525 10.4031 59.0525 19.0006C59.0525 27.5982 60.4962 34.5676 62.2762 34.5676Z" fill="#BFFAE2"/>
</svg>
