<svg width="54" height="44" viewBox="0 0 54 44" fill="none" xmlns="http://www.w3.org/2000/svg">
<path d="M48.0758 11.1852C48.1081 11.6503 48.1081 12.1197 48.1081 12.5892C48.1081 26.9605 37.1691 43.5304 17.169 43.5304C11.259 43.5365 5.47223 41.8411 0.5 38.6466C1.35774 38.7458 2.22055 38.7947 3.084 38.7931C7.98203 38.7997 12.7396 37.1567 16.5897 34.1289C14.3202 34.0872 12.1205 33.3367 10.2988 31.9825C8.47703 30.6284 7.12439 28.7384 6.43028 26.5772C8.05942 26.8921 9.73909 26.8287 11.3399 26.392C8.88119 25.894 6.67018 24.5615 5.08128 22.6202C3.49238 20.6789 2.62324 18.2481 2.62103 15.7395V15.6017C4.13286 16.4457 5.82574 16.9133 7.55647 16.9647C5.25362 15.4273 3.62335 13.07 2.99764 10.3728C2.37194 7.67551 2.79785 4.84118 4.18866 2.44695C6.91856 5.80716 10.3246 8.55568 14.1857 10.5141C18.0468 12.4724 22.2767 13.5969 26.6006 13.8144C26.0598 11.4833 26.3024 9.03889 27.2907 6.85947C28.2789 4.68005 29.9579 2.88703 32.0677 1.75782C34.1776 0.628612 36.6008 0.226143 38.9624 0.61268C41.324 0.999216 43.4924 2.15322 45.1321 3.89614C47.5672 3.41437 49.902 2.52007 52.0357 1.25185C51.2238 3.76967 49.525 5.90691 47.2553 7.26611C49.4106 7.01131 51.5155 6.435 53.5 5.55636C52.0406 7.73993 50.2038 9.64599 48.0758 11.1852Z" fill="white"/>
<path d="M48.0758 11.1852C48.1081 11.6503 48.1081 12.1197 48.1081 12.5892C48.1081 26.9605 37.1691 43.5304 17.169 43.5304C11.259 43.5365 5.47223 41.8411 0.5 38.6466C1.35774 38.7458 2.22055 38.7947 3.084 38.7931C7.98203 38.7997 12.7396 37.1567 16.5897 34.1289C14.3202 34.0872 12.1205 33.3367 10.2988 31.9825C8.47703 30.6284 7.12439 28.7384 6.43028 26.5772C8.05942 26.8921 9.73909 26.8287 11.3399 26.392C8.88119 25.894 6.67018 24.5615 5.08128 22.6202C3.49238 20.6789 2.62324 18.2481 2.62103 15.7395V15.6017C4.13286 16.4457 5.82574 16.9133 7.55647 16.9647C5.25362 15.4273 3.62335 13.07 2.99764 10.3728C2.37194 7.67551 2.79785 4.84118 4.18866 2.44695C6.91856 5.80716 10.3246 8.55568 14.1857 10.5141C18.0468 12.4724 22.2767 13.5969 26.6006 13.8144C26.0598 11.4833 26.3024 9.03889 27.2907 6.85947C28.2789 4.68005 29.9579 2.88703 32.0677 1.75782C34.1776 0.628612 36.6008 0.226143 38.9624 0.61268C41.324 0.999216 43.4924 2.15322 45.1321 3.89614C47.5672 3.41437 49.902 2.52007 52.0357 1.25185C51.2238 3.76967 49.525 5.90691 47.2553 7.26611C49.4106 7.01131 51.5155 6.435 53.5 5.55636C52.0406 7.73993 50.2038 9.64599 48.0758 11.1852Z" fill="#BFFAE2"/>
</svg>
