<svg width="50" height="50" viewBox="0 0 50 50" fill="none" xmlns="http://www.w3.org/2000/svg">
<path fill-rule="evenodd" clip-rule="evenodd" d="M25 0C20.0555 0 15.222 1.46622 11.1108 4.21326C6.99952 6.96029 3.79521 10.8648 1.90302 15.4329C0.0108321 20.0011 -0.484251 25.0277 0.480379 29.8773C1.44501 34.7268 3.82603 39.1814 7.32234 42.6777C10.8187 46.174 15.2732 48.555 20.1227 49.5196C24.9723 50.4842 29.9989 49.9892 34.5671 48.097C39.1352 46.2048 43.0397 43.0005 45.7867 38.8892C48.5338 34.778 50 29.9445 50 25C50 18.3696 47.3661 12.0107 42.6777 7.32233C37.9893 2.63392 31.6304 0 25 0ZM36.5741 17C36.213 20.9537 34.5833 30.5555 33.7546 34.9768C33.4074 36.8287 32.713 37.4768 32.0463 37.537C30.5972 37.6713 29.4907 36.5741 28.088 35.6481C25.8843 34.2083 24.6435 33.3333 22.5093 31.9028C20.037 30.2731 21.6389 29.3796 23.0463 27.9213C23.412 27.537 29.8102 21.7176 29.9352 21.1898C29.9506 21.1125 29.9482 21.0327 29.9281 20.9565C29.9081 20.8803 29.8709 20.8097 29.8195 20.75C29.7432 20.7012 29.6564 20.6712 29.5663 20.6623C29.4762 20.6535 29.3853 20.6661 29.3009 20.6991C29.0787 20.7515 25.5633 23.0741 18.7546 27.6667C17.9811 28.2846 17.0347 28.647 16.0463 28.7037C15.1528 28.7037 13.4352 28.1991 12.1574 27.7778C10.5926 27.2685 9.34723 27 9.45834 26.1343C9.5139 25.6867 10.1312 25.2238 11.3102 24.7454C18.6003 21.5694 23.4614 19.4768 25.8935 18.4676C32.838 15.5787 34.2778 15.0741 35.2176 15.0602C35.563 15.0518 35.902 15.154 36.1852 15.3518C36.3857 15.5236 36.5132 15.7653 36.5417 16.0278C36.5877 16.3497 36.5985 16.6757 36.5741 17Z" fill="white"/>
<path fill-rule="evenodd" clip-rule="evenodd" d="M25 0C20.0555 0 15.222 1.46622 11.1108 4.21326C6.99952 6.96029 3.79521 10.8648 1.90302 15.4329C0.0108321 20.0011 -0.484251 25.0277 0.480379 29.8773C1.44501 34.7268 3.82603 39.1814 7.32234 42.6777C10.8187 46.174 15.2732 48.555 20.1227 49.5196C24.9723 50.4842 29.9989 49.9892 34.5671 48.097C39.1352 46.2048 43.0397 43.0005 45.7867 38.8892C48.5338 34.778 50 29.9445 50 25C50 18.3696 47.3661 12.0107 42.6777 7.32233C37.9893 2.63392 31.6304 0 25 0ZM36.5741 17C36.213 20.9537 34.5833 30.5555 33.7546 34.9768C33.4074 36.8287 32.713 37.4768 32.0463 37.537C30.5972 37.6713 29.4907 36.5741 28.088 35.6481C25.8843 34.2083 24.6435 33.3333 22.5093 31.9028C20.037 30.2731 21.6389 29.3796 23.0463 27.9213C23.412 27.537 29.8102 21.7176 29.9352 21.1898C29.9506 21.1125 29.9482 21.0327 29.9281 20.9565C29.9081 20.8803 29.8709 20.8097 29.8195 20.75C29.7432 20.7012 29.6564 20.6712 29.5663 20.6623C29.4762 20.6535 29.3853 20.6661 29.3009 20.6991C29.0787 20.7515 25.5633 23.0741 18.7546 27.6667C17.9811 28.2846 17.0347 28.647 16.0463 28.7037C15.1528 28.7037 13.4352 28.1991 12.1574 27.7778C10.5926 27.2685 9.34723 27 9.45834 26.1343C9.5139 25.6867 10.1312 25.2238 11.3102 24.7454C18.6003 21.5694 23.4614 19.4768 25.8935 18.4676C32.838 15.5787 34.2778 15.0741 35.2176 15.0602C35.563 15.0518 35.902 15.154 36.1852 15.3518C36.3857 15.5236 36.5132 15.7653 36.5417 16.0278C36.5877 16.3497 36.5985 16.6757 36.5741 17Z" fill="#BFFAE2"/>
</svg>
